<svg width="16" height="16" viewBox="0 0 16 16" fill="none" xmlns="http://www.w3.org/2000/svg">
<path d="M7.55908 5.86646C7.55908 5.43914 7.71129 5.26443 7.82471 5.20173C7.94846 5.13332 8.21018 5.09505 8.62017 5.32056L10.2523 6.2149C10.6682 6.44371 10.7354 6.66425 10.7354 6.75756C10.7354 6.85088 10.6685 7.07129 10.2526 7.3001L8.62091 8.19416C8.20956 8.42041 7.94693 8.3831 7.82385 8.31534C7.71198 8.25377 7.55908 8.08035 7.55908 7.64866V5.86646Z" fill="white"/>
<path fill-rule="evenodd" clip-rule="evenodd" d="M15.5 8.18859V5.32699C15.5 3.43119 14.7694 2.35811 13.5942 1.95033C13.213 1.81441 12.7874 1.75 12.3236 1.75H5.9709C5.50715 1.75 5.08151 1.81441 4.70035 1.95033C3.52509 2.35811 2.79453 3.43119 2.79453 5.32699V8.18859C2.79453 10.6925 4.06507 11.7656 5.9709 11.7656H12.3236C14.2295 11.7656 15.5 10.6925 15.5 8.18859ZM9.1248 4.37718C8.52159 4.04552 7.86198 3.95876 7.31768 4.25968C6.76292 4.56638 6.50029 5.17909 6.50029 5.86646V7.64866C6.50029 8.33815 6.76223 8.95214 7.31854 9.25835C7.86352 9.55833 8.523 9.46884 9.12487 9.1379L10.7566 8.24378C11.3539 7.9153 11.7942 7.3998 11.7942 6.75756C11.7942 6.11533 11.3546 5.60023 10.7574 5.27174L9.1248 4.37718Z" fill="white"/>
<path d="M1.75149 4.32877C1.0086 4.71358 0.5 5.49679 0.5 6.4004V10.1365C0.5 12.4083 2.31714 14.25 4.55869 14.25H11.4603C12.5168 14.25 13.4171 13.5726 13.7616 12.6229C13.388 12.7131 12.992 12.755 12.5821 12.755H5.71012C4.57607 12.755 3.54834 12.4339 2.80782 11.6596C2.06962 10.8876 1.70148 9.75353 1.70148 8.30526V5.20978C1.70148 4.9016 1.71813 4.60782 1.75149 4.32877Z" fill="white"/>
</svg>
