<svg width="16" height="16" viewBox="0 0 16 16" fill="none" xmlns="http://www.w3.org/2000/svg">
<path d="M6.15623 6.255C6.15623 5.805 6.30613 5.645 6.39607 5.595C6.48601 5.545 6.70586 5.495 7.08561 5.715L8.66456 6.625C9.0543 6.845 9.11426 7.065 9.11426 7.165C9.11426 7.265 9.0443 7.485 8.66456 7.705L7.08561 8.615C6.69587 8.835 6.47602 8.785 6.39607 8.735C6.30613 8.685 6.15623 8.525 6.15623 8.065V6.255Z" fill="white"/>
<path fill-rule="evenodd" clip-rule="evenodd" d="M14.8005 3.475C14.2908 3.215 13.7112 3.375 13.2315 3.715L12.3521 4.335C12.3521 2.305 11.6226 1.625 9.494 1.625H5.18688C3.02831 1.625 2.30879 2.315 2.30879 4.395V9.925C2.30879 11.315 3.02831 12.695 5.18688 12.695H9.494C11.6126 12.695 12.3421 12.015 12.3521 9.995L13.2315 10.605C13.7112 10.945 14.2908 11.105 14.8005 10.845C15.3101 10.585 15.5 10.015 15.5 9.425V4.905C15.5 4.315 15.3101 3.745 14.8005 3.475ZM9.22418 8.675L7.64524 9.585C7.05563 9.925 6.38608 10.035 5.82645 9.705C5.26682 9.385 5.01699 8.755 5.01699 8.065V6.255C5.01699 5.575 5.26682 4.945 5.82645 4.615C6.38608 4.295 7.05563 4.395 7.64524 4.735L9.22418 5.645C9.82378 5.995 10.2435 6.525 10.2435 7.165C10.2435 7.805 9.81379 8.335 9.22418 8.675Z" fill="white"/>
<path d="M1.55929 10.735C1.58927 11.045 1.66922 11.325 1.78914 11.585C1.90906 11.855 2.06895 12.125 2.26882 12.365C2.84843 13.035 3.74783 13.435 4.95703 13.435H9.29414C9.57395 13.435 9.83378 13.425 10.0736 13.405C9.9537 13.555 9.82378 13.685 9.6439 13.815C9.11426 14.205 8.39474 14.375 7.49534 14.375H4.65723C2.46869 14.375 0.5 12.725 0.5 10.405V6.365C0.5 5.545 0.609927 4.825 0.999667 4.305C1.13957 4.105 1.32945 3.935 1.51932 3.805C1.49933 4.025 1.48934 4.265 1.48934 4.505V10.075C1.48934 10.285 1.49933 10.515 1.53931 10.725H1.5493L1.55929 10.735Z" fill="white"/>
</svg>
